<svg xmlns="http://www.w3.org/2000/svg" viewBox="0 0 900 220" width="900" height="220" font-family="'Courier New', ui-monospace, monospace">
  <defs>
    <filter id="glow" x="-40%" y="-40%" width="180%" height="180%">
      <feGaussianBlur stdDeviation="2.4" result="b"/>
      <feMerge><feMergeNode in="b"/><feMergeNode in="SourceGraphic"/></feMerge>
    </filter>
    <pattern id="scan" width="4" height="4" patternUnits="userSpaceOnUse">
      <rect width="4" height="1" y="3" fill="#000000" opacity="0.28"/>
    </pattern>
    <radialGradient id="vig" cx="50%" cy="50%" r="78%">
      <stop offset="58%" stop-color="#000000" stop-opacity="0"/>
      <stop offset="100%" stop-color="#000000" stop-opacity="0.45"/>
    </radialGradient>
  </defs>

  <!-- Screen -->
  <rect x="1" y="1" width="898" height="218" rx="6" fill="#080c08" stroke="#008000" stroke-width="2"/>

  <!-- Squirty (64-grid pixel art, scaled) -->
  <g transform="translate(58,46) scale(2)" shape-rendering="crispEdges">
    <rect x="29" y="6" width="1" height="1" fill="#00e5ff"/><rect x="26" y="7" width="3" height="1" fill="#00e5ff"/><rect x="24" y="8" width="4" height="1" fill="#00e5ff"/><rect x="21" y="9" width="7" height="1" fill="#00e5ff"/><rect x="19" y="10" width="8" height="1" fill="#00e5ff"/><rect x="17" y="11" width="9" height="1" fill="#00e5ff"/><rect x="15" y="12" width="10" height="1" fill="#00e5ff"/><rect x="13" y="13" width="11" height="1" fill="#00e5ff"/><rect x="12" y="14" width="11" height="1" fill="#00e5ff"/><rect x="11" y="15" width="11" height="1" fill="#00e5ff"/><rect x="11" y="16" width="10" height="1" fill="#00e5ff"/><rect x="11" y="17" width="9" height="1" fill="#00e5ff"/><rect x="11" y="18" width="9" height="1" fill="#00e5ff"/><rect x="12" y="19" width="7" height="1" fill="#00e5ff"/><rect x="13" y="20" width="5" height="1" fill="#00e5ff"/><rect x="14" y="21" width="3" height="1" fill="#00e5ff"/><rect x="15" y="22" width="1" height="1" fill="#00e5ff"/><rect x="29" y="6" width="3" height="1" fill="#00b8d4"/><rect x="26" y="7" width="3" height="1" fill="#00b8d4"/><rect x="24" y="8" width="2" height="1" fill="#00b8d4"/><rect x="21" y="9" width="3" height="1" fill="#00b8d4"/><rect x="19" y="10" width="2" height="1" fill="#00b8d4"/><rect x="17" y="11" width="2" height="1" fill="#00b8d4"/><rect x="15" y="12" width="2" height="1" fill="#00b8d4"/><rect x="13" y="13" width="3" height="1" fill="#00b8d4"/><rect x="12" y="14" width="3" height="1" fill="#00b8d4"/><rect x="11" y="15" width="3" height="1" fill="#00b8d4"/><rect x="11" y="16" width="3" height="1" fill="#00b8d4"/><rect x="11" y="17" width="3" height="1" fill="#00b8d4"/><rect x="11" y="18" width="3" height="1" fill="#00b8d4"/><rect x="12" y="19" width="3" height="1" fill="#00b8d4"/><rect x="13" y="20" width="2" height="1" fill="#00b8d4"/><rect x="14" y="21" width="2" height="1" fill="#00b8d4"/><rect x="15" y="22" width="2" height="1" fill="#00b8d4"/><rect x="35" y="6" width="1" height="1" fill="#00e5ff"/><rect x="36" y="7" width="3" height="1" fill="#00e5ff"/><rect x="37" y="8" width="4" height="1" fill="#00e5ff"/><rect x="37" y="9" width="7" height="1" fill="#00e5ff"/><rect x="38" y="10" width="8" height="1" fill="#00e5ff"/><rect x="39" y="11" width="9" height="1" fill="#00e5ff"/><rect x="40" y="12" width="10" height="1" fill="#00e5ff"/><rect x="41" y="13" width="11" height="1" fill="#00e5ff"/><rect x="42" y="14" width="11" height="1" fill="#00e5ff"/><rect x="43" y="15" width="11" height="1" fill="#00e5ff"/><rect x="44" y="16" width="10" height="1" fill="#00e5ff"/><rect x="45" y="17" width="9" height="1" fill="#00e5ff"/><rect x="45" y="18" width="9" height="1" fill="#00e5ff"/><rect x="46" y="19" width="7" height="1" fill="#00e5ff"/><rect x="47" y="20" width="5" height="1" fill="#00e5ff"/><rect x="48" y="21" width="3" height="1" fill="#00e5ff"/><rect x="49" y="22" width="1" height="1" fill="#00e5ff"/><rect x="33" y="6" width="3" height="1" fill="#00b8d4"/><rect x="36" y="7" width="3" height="1" fill="#00b8d4"/><rect x="39" y="8" width="2" height="1" fill="#00b8d4"/><rect x="41" y="9" width="3" height="1" fill="#00b8d4"/><rect x="44" y="10" width="2" height="1" fill="#00b8d4"/><rect x="46" y="11" width="2" height="1" fill="#00b8d4"/><rect x="48" y="12" width="2" height="1" fill="#00b8d4"/><rect x="49" y="13" width="3" height="1" fill="#00b8d4"/><rect x="50" y="14" width="3" height="1" fill="#00b8d4"/><rect x="51" y="15" width="3" height="1" fill="#00b8d4"/><rect x="51" y="16" width="3" height="1" fill="#00b8d4"/><rect x="51" y="17" width="3" height="1" fill="#00b8d4"/><rect x="51" y="18" width="3" height="1" fill="#00b8d4"/><rect x="50" y="19" width="3" height="1" fill="#00b8d4"/><rect x="50" y="20" width="2" height="1" fill="#00b8d4"/><rect x="49" y="21" width="2" height="1" fill="#00b8d4"/><rect x="48" y="22" width="2" height="1" fill="#00b8d4"/><rect x="17" y="46" width="7" height="1" fill="#00e5ff"/><rect x="17" y="47" width="7" height="1" fill="#00e5ff"/><rect x="17" y="48" width="7" height="1" fill="#00e5ff"/><rect x="18" y="49" width="5" height="1" fill="#00e5ff"/><rect x="18" y="50" width="5" height="1" fill="#00e5ff"/><rect x="18" y="51" width="5" height="1" fill="#00e5ff"/><rect x="18" y="52" width="5" height="1" fill="#00e5ff"/><rect x="18" y="53" width="5" height="1" fill="#00e5ff"/><rect x="19" y="54" width="4" height="1" fill="#00e5ff"/><rect x="19" y="55" width="3" height="1" fill="#00e5ff"/><rect x="19" y="56" width="3" height="1" fill="#00e5ff"/><rect x="19" y="57" width="3" height="1" fill="#00e5ff"/><rect x="19" y="58" width="3" height="1" fill="#00e5ff"/><rect x="19" y="59" width="3" height="1" fill="#00e5ff"/><rect x="20" y="60" width="1" height="1" fill="#00e5ff"/><rect x="20" y="61" width="1" height="1" fill="#00e5ff"/><rect x="20" y="62" width="1" height="1" fill="#00e5ff"/><rect x="25" y="46" width="7" height="1" fill="#00b8d4"/><rect x="25" y="47" width="7" height="1" fill="#00b8d4"/><rect x="25" y="48" width="7" height="1" fill="#00b8d4"/><rect x="26" y="49" width="5" height="1" fill="#00b8d4"/><rect x="26" y="50" width="5" height="1" fill="#00b8d4"/><rect x="26" y="51" width="5" height="1" fill="#00b8d4"/><rect x="26" y="52" width="5" height="1" fill="#00b8d4"/><rect x="26" y="53" width="5" height="1" fill="#00b8d4"/><rect x="27" y="54" width="4" height="1" fill="#00b8d4"/><rect x="27" y="55" width="3" height="1" fill="#00b8d4"/><rect x="27" y="56" width="3" height="1" fill="#00b8d4"/><rect x="27" y="57" width="3" height="1" fill="#00b8d4"/><rect x="27" y="58" width="3" height="1" fill="#00b8d4"/><rect x="27" y="59" width="3" height="1" fill="#00b8d4"/><rect x="28" y="60" width="1" height="1" fill="#00b8d4"/><rect x="28" y="61" width="1" height="1" fill="#00b8d4"/><rect x="28" y="62" width="1" height="1" fill="#00b8d4"/><rect x="33" y="46" width="7" height="1" fill="#00e5ff"/><rect x="33" y="47" width="7" height="1" fill="#00e5ff"/><rect x="33" y="48" width="7" height="1" fill="#00e5ff"/><rect x="34" y="49" width="5" height="1" fill="#00e5ff"/><rect x="34" y="50" width="5" height="1" fill="#00e5ff"/><rect x="34" y="51" width="5" height="1" fill="#00e5ff"/><rect x="34" y="52" width="5" height="1" fill="#00e5ff"/><rect x="34" y="53" width="5" height="1" fill="#00e5ff"/><rect x="35" y="54" width="4" height="1" fill="#00e5ff"/><rect x="35" y="55" width="3" height="1" fill="#00e5ff"/><rect x="35" y="56" width="3" height="1" fill="#00e5ff"/><rect x="35" y="57" width="3" height="1" fill="#00e5ff"/><rect x="35" y="58" width="3" height="1" fill="#00e5ff"/><rect x="35" y="59" width="3" height="1" fill="#00e5ff"/><rect x="36" y="60" width="1" height="1" fill="#00e5ff"/><rect x="36" y="61" width="1" height="1" fill="#00e5ff"/><rect x="36" y="62" width="1" height="1" fill="#00e5ff"/><rect x="41" y="46" width="7" height="1" fill="#00b8d4"/><rect x="41" y="47" width="7" height="1" fill="#00b8d4"/><rect x="41" y="48" width="7" height="1" fill="#00b8d4"/><rect x="42" y="49" width="5" height="1" fill="#00b8d4"/><rect x="42" y="50" width="5" height="1" fill="#00b8d4"/><rect x="42" y="51" width="5" height="1" fill="#00b8d4"/><rect x="42" y="52" width="5" height="1" fill="#00b8d4"/><rect x="42" y="53" width="5" height="1" fill="#00b8d4"/><rect x="43" y="54" width="4" height="1" fill="#00b8d4"/><rect x="43" y="55" width="3" height="1" fill="#00b8d4"/><rect x="43" y="56" width="3" height="1" fill="#00b8d4"/><rect x="43" y="57" width="3" height="1" fill="#00b8d4"/><rect x="43" y="58" width="3" height="1" fill="#00b8d4"/><rect x="43" y="59" width="3" height="1" fill="#00b8d4"/><rect x="44" y="60" width="1" height="1" fill="#00b8d4"/><rect x="44" y="61" width="1" height="1" fill="#00b8d4"/><rect x="44" y="62" width="1" height="1" fill="#00b8d4"/><rect x="32" y="2" width="1" height="1" fill="#00e5ff"/><rect x="31" y="3" width="3" height="1" fill="#00e5ff"/><rect x="31" y="4" width="3" height="1" fill="#00e5ff"/><rect x="30" y="5" width="5" height="1" fill="#00e5ff"/><rect x="29" y="6" width="7" height="1" fill="#00e5ff"/><rect x="28" y="7" width="9" height="1" fill="#00e5ff"/><rect x="27" y="8" width="11" height="1" fill="#00e5ff"/><rect x="27" y="9" width="11" height="1" fill="#00e5ff"/><rect x="26" y="10" width="13" height="1" fill="#00e5ff"/><rect x="25" y="11" width="15" height="1" fill="#00e5ff"/><rect x="24" y="12" width="17" height="1" fill="#00e5ff"/><rect x="23" y="13" width="19" height="1" fill="#00e5ff"/><rect x="22" y="14" width="21" height="1" fill="#00e5ff"/><rect x="21" y="15" width="23" height="1" fill="#00e5ff"/><rect x="20" y="16" width="25" height="1" fill="#00e5ff"/><rect x="19" y="17" width="27" height="1" fill="#00e5ff"/><rect x="19" y="18" width="27" height="1" fill="#00e5ff"/><rect x="18" y="19" width="29" height="1" fill="#00e5ff"/><rect x="17" y="20" width="31" height="1" fill="#00e5ff"/><rect x="16" y="21" width="33" height="1" fill="#00e5ff"/><rect x="15" y="22" width="35" height="1" fill="#00e5ff"/><rect x="14" y="23" width="37" height="1" fill="#00e5ff"/><rect x="13" y="24" width="39" height="1" fill="#00e5ff"/><rect x="12" y="25" width="41" height="1" fill="#00e5ff"/><rect x="11" y="26" width="43" height="1" fill="#00e5ff"/><rect x="11" y="27" width="43" height="1" fill="#00e5ff"/><rect x="11" y="28" width="43" height="1" fill="#00e5ff"/><rect x="11" y="29" width="43" height="1" fill="#00e5ff"/><rect x="11" y="30" width="43" height="1" fill="#00e5ff"/><rect x="11" y="31" width="43" height="1" fill="#00e5ff"/><rect x="11" y="32" width="43" height="1" fill="#00e5ff"/><rect x="11" y="33" width="43" height="1" fill="#00e5ff"/><rect x="11" y="34" width="43" height="1" fill="#00e5ff"/><rect x="11" y="35" width="43" height="1" fill="#00e5ff"/><rect x="11" y="36" width="43" height="1" fill="#00e5ff"/><rect x="11" y="37" width="43" height="1" fill="#00e5ff"/><rect x="11" y="38" width="43" height="1" fill="#00e5ff"/><rect x="11" y="39" width="43" height="1" fill="#00e5ff"/><rect x="11" y="40" width="43" height="1" fill="#00e5ff"/><rect x="11" y="41" width="43" height="1" fill="#00e5ff"/><rect x="11" y="42" width="43" height="1" fill="#00e5ff"/><rect x="12" y="43" width="41" height="1" fill="#00e5ff"/><rect x="12" y="44" width="41" height="1" fill="#00e5ff"/><rect x="13" y="45" width="39" height="1" fill="#00e5ff"/><rect x="14" y="46" width="37" height="1" fill="#00e5ff"/><rect x="15" y="47" width="35" height="1" fill="#00e5ff"/><rect x="15" y="48" width="35" height="1" fill="#00e5ff"/><rect x="34" y="9" width="3" height="1" fill="#00b8d4"/><rect x="35" y="10" width="3" height="1" fill="#00b8d4"/><rect x="36" y="11" width="3" height="1" fill="#00b8d4"/><rect x="37" y="12" width="3" height="1" fill="#00b8d4"/><rect x="38" y="13" width="3" height="1" fill="#00b8d4"/><rect x="39" y="14" width="3" height="1" fill="#00b8d4"/><rect x="40" y="15" width="3" height="1" fill="#00b8d4"/><rect x="41" y="16" width="3" height="1" fill="#00b8d4"/><rect x="42" y="17" width="3" height="1" fill="#00b8d4"/><rect x="42" y="18" width="3" height="1" fill="#00b8d4"/><rect x="43" y="19" width="3" height="1" fill="#00b8d4"/><rect x="44" y="20" width="3" height="1" fill="#00b8d4"/><rect x="45" y="21" width="3" height="1" fill="#00b8d4"/><rect x="46" y="22" width="3" height="1" fill="#00b8d4"/><rect x="47" y="23" width="3" height="1" fill="#00b8d4"/><rect x="48" y="24" width="3" height="1" fill="#00b8d4"/><rect x="49" y="25" width="3" height="1" fill="#00b8d4"/><rect x="50" y="26" width="3" height="1" fill="#00b8d4"/><rect x="50" y="27" width="3" height="1" fill="#00b8d4"/><rect x="50" y="28" width="3" height="1" fill="#00b8d4"/><rect x="50" y="29" width="3" height="1" fill="#00b8d4"/><rect x="50" y="30" width="3" height="1" fill="#00b8d4"/><rect x="50" y="31" width="3" height="1" fill="#00b8d4"/><rect x="50" y="32" width="3" height="1" fill="#00b8d4"/><rect x="50" y="33" width="3" height="1" fill="#00b8d4"/><rect x="50" y="34" width="3" height="1" fill="#00b8d4"/><rect x="50" y="35" width="3" height="1" fill="#00b8d4"/><rect x="50" y="36" width="3" height="1" fill="#00b8d4"/><rect x="50" y="37" width="3" height="1" fill="#00b8d4"/><rect x="50" y="38" width="3" height="1" fill="#00b8d4"/><rect x="50" y="39" width="3" height="1" fill="#00b8d4"/><rect x="50" y="40" width="3" height="1" fill="#00b8d4"/><rect x="50" y="41" width="3" height="1" fill="#00b8d4"/><rect x="50" y="42" width="3" height="1" fill="#00b8d4"/><rect x="49" y="43" width="3" height="1" fill="#00b8d4"/><rect x="49" y="44" width="3" height="1" fill="#00b8d4"/><rect x="48" y="45" width="3" height="1" fill="#00b8d4"/><rect x="47" y="46" width="3" height="1" fill="#00b8d4"/><rect x="46" y="47" width="3" height="1" fill="#00b8d4"/><rect x="46" y="48" width="3" height="1" fill="#00b8d4"/><rect x="29" y="7" width="2" height="1" fill="#7df9ff"/><rect x="28" y="8" width="2" height="1" fill="#7df9ff"/><rect x="28" y="9" width="2" height="1" fill="#7df9ff"/><rect x="27" y="10" width="3" height="1" fill="#7df9ff"/><rect x="26" y="11" width="3" height="1" fill="#7df9ff"/><rect x="13" y="37" width="5" height="3" fill="#ff4081" opacity="0.8"/><rect x="47" y="37" width="5" height="3" fill="#ff4081" opacity="0.8"/><rect x="20" y="24" width="6" height="1" fill="#ffffff"/><rect x="18" y="25" width="9" height="1" fill="#ffffff"/><rect x="17" y="26" width="11" height="1" fill="#ffffff"/><rect x="16" y="27" width="13" height="1" fill="#ffffff"/><rect x="16" y="28" width="13" height="1" fill="#ffffff"/><rect x="16" y="29" width="14" height="1" fill="#ffffff"/><rect x="16" y="30" width="14" height="1" fill="#ffffff"/><rect x="16" y="31" width="14" height="1" fill="#ffffff"/><rect x="16" y="32" width="13" height="1" fill="#ffffff"/><rect x="16" y="33" width="13" height="1" fill="#ffffff"/><rect x="17" y="34" width="11" height="1" fill="#ffffff"/><rect x="18" y="35" width="9" height="1" fill="#ffffff"/><rect x="20" y="36" width="6" height="1" fill="#ffffff"/><rect x="20" y="28" width="6" height="1" fill="#000000"/><rect x="19" y="29" width="8" height="1" fill="#000000"/><rect x="18" y="30" width="9" height="1" fill="#000000"/><rect x="18" y="31" width="9" height="1" fill="#000000"/><rect x="18" y="32" width="9" height="1" fill="#000000"/><rect x="19" y="33" width="8" height="1" fill="#000000"/><rect x="20" y="34" width="6" height="1" fill="#000000"/><rect x="20" y="27" width="3" height="1" fill="#ffffff"/><rect x="20" y="28" width="4" height="1" fill="#ffffff"/><rect x="20" y="29" width="3" height="1" fill="#ffffff"/><rect x="40" y="24" width="6" height="1" fill="#ffffff"/><rect x="38" y="25" width="9" height="1" fill="#ffffff"/><rect x="37" y="26" width="11" height="1" fill="#ffffff"/><rect x="36" y="27" width="13" height="1" fill="#ffffff"/><rect x="36" y="28" width="13" height="1" fill="#ffffff"/><rect x="36" y="29" width="14" height="1" fill="#ffffff"/><rect x="36" y="30" width="14" height="1" fill="#ffffff"/><rect x="36" y="31" width="14" height="1" fill="#ffffff"/><rect x="36" y="32" width="13" height="1" fill="#ffffff"/><rect x="36" y="33" width="13" height="1" fill="#ffffff"/><rect x="37" y="34" width="11" height="1" fill="#ffffff"/><rect x="38" y="35" width="9" height="1" fill="#ffffff"/><rect x="40" y="36" width="6" height="1" fill="#ffffff"/><rect x="40" y="28" width="6" height="1" fill="#000000"/><rect x="39" y="29" width="8" height="1" fill="#000000"/><rect x="38" y="30" width="9" height="1" fill="#000000"/><rect x="38" y="31" width="9" height="1" fill="#000000"/><rect x="38" y="32" width="9" height="1" fill="#000000"/><rect x="39" y="33" width="8" height="1" fill="#000000"/><rect x="40" y="34" width="6" height="1" fill="#000000"/><rect x="40" y="27" width="3" height="1" fill="#ffffff"/><rect x="40" y="28" width="4" height="1" fill="#ffffff"/><rect x="40" y="29" width="3" height="1" fill="#ffffff"/><rect x="26" y="40" width="1" height="2" fill="#00838f"/><rect x="27" y="41" width="1" height="2" fill="#00838f"/><rect x="28" y="42" width="1" height="2" fill="#00838f"/><rect x="29" y="43" width="1" height="2" fill="#00838f"/><rect x="30" y="43" width="1" height="2" fill="#00838f"/><rect x="31" y="44" width="1" height="2" fill="#00838f"/><rect x="32" y="44" width="1" height="2" fill="#00838f"/><rect x="33" y="44" width="1" height="2" fill="#00838f"/><rect x="34" y="43" width="1" height="2" fill="#00838f"/><rect x="35" y="43" width="1" height="2" fill="#00838f"/><rect x="36" y="42" width="1" height="2" fill="#00838f"/><rect x="37" y="41" width="1" height="2" fill="#00838f"/><rect x="38" y="40" width="1" height="2" fill="#00838f"/>
  </g>

  <!-- Terminal prompt + title -->
  <text x="212" y="50" font-size="17" fill="#008000">dstroy0@esp32:~$ ./squirty --banner</text>
  <text x="210" y="108" font-size="50" font-weight="700" fill="#40ff40" filter="url(#glow)">Deterministic</text>
  <text x="210" y="158" font-size="46" font-weight="700" fill="#2bb35a" filter="url(#glow)">ESPAsyncWebServer</text>
  <text x="212" y="192" font-size="18" fill="#2bb35a">Zero-heap &#183; RFC 7230 &#183; HTTP &#183; WebSocket &#183; SSH for ESP32</text>

  <!-- Version tag -->
  <rect x="786" y="30" width="84" height="26" rx="3" fill="#001100" stroke="#008000" stroke-width="1.5"/>
  <text x="828" y="48" font-size="16" font-weight="700" fill="#40ff40" text-anchor="middle">v7.10.0</text>

  <!-- CRT overlays -->
  <rect x="1" y="1" width="898" height="218" rx="6" fill="url(#scan)"/>
  <rect x="1" y="1" width="898" height="218" rx="6" fill="url(#vig)"/>
</svg>
