<svg xmlns="http://www.w3.org/2000/svg" viewBox="0 0 16 16" width="128" height="128" style="shape-rendering: crispEdges;">
  <!-- Squirty the Injection Squid Mascot -->
  <!-- Body (neon cyan #00e5ff) -->
  <rect x="5" y="1" width="6" height="1" fill="#00e5ff"/>
  <rect x="4" y="2" width="8" height="1" fill="#00e5ff"/>
  <rect x="3" y="3" width="10" height="1" fill="#00e5ff"/>
  <rect x="2" y="4" width="12" height="3" fill="#00e5ff"/>
  
  <!-- Eyes & Blush -->
  <rect x="2" y="7" width="1" height="2" fill="#00e5ff"/>
  <rect x="3" y="7" width="2" height="2" fill="#ffffff"/> <!-- Left eye white -->
  <rect x="3" y="8" width="1" height="1" fill="#000000"/> <!-- Left pupil -->
  <rect x="5" y="7" width="6" height="2" fill="#00e5ff"/>
  <rect x="11" y="7" width="2" height="2" fill="#ffffff"/> <!-- Right eye white -->
  <rect x="11" y="8" width="1" height="1" fill="#000000"/> <!-- Right pupil -->
  <rect x="13" y="7" width="1" height="2" fill="#00e5ff"/>
  
  <rect x="2" y="9" width="1" height="1" fill="#ff4081" opacity="0.85"/> <!-- Blush -->
  <rect x="13" y="9" width="1" height="1" fill="#ff4081" opacity="0.85"/> <!-- Blush -->
  <rect x="3" y="9" width="10" height="1" fill="#00e5ff"/>
  <rect x="3" y="10" width="10" height="1" fill="#00e5ff"/>
  <rect x="4" y="11" width="8" height="1" fill="#00e5ff"/>

  <!-- Tentacles -->
  <rect x="4" y="12" width="2" height="3" fill="#00e5ff"/>
  <rect x="4" y="13" width="1" height="1" fill="#00b8d4"/>
  
  <rect x="6" y="12" width="1" height="3" fill="#00b8d4"/>
  <rect x="7" y="12" width="1" height="3" fill="#00e5ff"/>
  
  <rect x="8" y="12" width="1" height="3" fill="#00e5ff"/>
  <rect x="9" y="12" width="1" height="3" fill="#00b8d4"/>
  
  <rect x="10" y="12" width="2" height="3" fill="#00e5ff"/>
  <rect x="11" y="13" width="1" height="1" fill="#00b8d4"/>

  <!-- Shadows / details -->
  <rect x="5" y="2" width="1" height="1" fill="#00b8d4"/>
  <rect x="4" y="3" width="1" height="1" fill="#00b8d4"/>
  <rect x="3" y="4" width="1" height="2" fill="#00b8d4"/>
  <rect x="2" y="6" width="1" height="1" fill="#00b8d4"/>
  <!-- Mouth -->
  <rect x="7" y="9" width="2" height="1" fill="#00838f"/>
</svg>
