<svg xmlns="http://www.w3.org/2000/svg" viewBox="0 0 16 16" width="128" height="128" style="shape-rendering: crispEdges;">
  <!-- Squirty the Injection Squid Mascot -->
  <!-- Triangular sail fins flanking the mantle apex -->
  <rect x="1" y="1" width="4" height="1" fill="#00e5ff"/>
  <rect x="1" y="2" width="4" height="1" fill="#00e5ff"/>
  <rect x="2" y="3" width="2" height="1" fill="#00e5ff"/>
  <rect x="3" y="4" width="1" height="1" fill="#00e5ff"/>
  <rect x="1" y="1" width="1" height="2" fill="#00b8d4"/>
  <rect x="3" y="4" width="1" height="1" fill="#00b8d4"/>
  <rect x="11" y="1" width="4" height="1" fill="#00e5ff"/>
  <rect x="11" y="2" width="4" height="1" fill="#00e5ff"/>
  <rect x="12" y="3" width="2" height="1" fill="#00e5ff"/>
  <rect x="12" y="4" width="1" height="1" fill="#00e5ff"/>
  <rect x="14" y="1" width="1" height="2" fill="#00b8d4"/>
  <rect x="12" y="4" width="1" height="1" fill="#00b8d4"/>

  <!-- Mantle: rounded squid body (domed top) -->
  <rect x="6" y="0" width="4" height="1" fill="#00e5ff"/>
  <rect x="5" y="1" width="6" height="1" fill="#00e5ff"/>
  <rect x="5" y="2" width="6" height="1" fill="#00e5ff"/>
  <rect x="4" y="3" width="8" height="1" fill="#00e5ff"/>
  <rect x="4" y="4" width="8" height="1" fill="#00e5ff"/>
  <rect x="3" y="5" width="10" height="1" fill="#00e5ff"/>
  <rect x="2" y="6" width="12" height="1" fill="#00e5ff"/>

  <!-- Eyes (3x3 whites; centred pupils) & Blush -->
  <rect x="2" y="7" width="1" height="3" fill="#00e5ff"/>  <!-- left edge -->
  <rect x="6" y="7" width="4" height="3" fill="#00e5ff"/>  <!-- bridge between the eyes -->
  <rect x="13" y="7" width="1" height="3" fill="#00e5ff"/> <!-- right edge -->
  <rect x="3" y="7" width="3" height="3" fill="#ffffff"/>  <!-- Left eye white -->
  <rect x="10" y="7" width="3" height="3" fill="#ffffff"/> <!-- Right eye white -->
  <rect x="4" y="8" width="2" height="2" fill="#000000"/>  <!-- Left pupil (big, friendly) -->
  <rect x="10" y="8" width="2" height="2" fill="#000000"/> <!-- Right pupil (big, friendly) -->
  <rect x="4" y="8" width="1" height="1" fill="#ffffff"/>  <!-- Left eye glint -->
  <rect x="11" y="8" width="1" height="1" fill="#ffffff"/> <!-- Right eye glint -->
  <rect x="2" y="9" width="1" height="1" fill="#ff4081" opacity="0.85"/> <!-- Blush -->
  <rect x="13" y="9" width="1" height="1" fill="#ff4081" opacity="0.85"/> <!-- Blush -->
  <rect x="3" y="10" width="10" height="1" fill="#00e5ff"/>
  <rect x="4" y="11" width="8" height="1" fill="#00e5ff"/>

  <!-- Tentacles -->
  <rect x="4" y="12" width="2" height="3" fill="#00e5ff"/>
  <rect x="4" y="13" width="1" height="1" fill="#00b8d4"/>
  <rect x="6" y="12" width="1" height="3" fill="#00b8d4"/>
  <rect x="7" y="12" width="1" height="3" fill="#00e5ff"/>
  <rect x="8" y="12" width="1" height="3" fill="#00e5ff"/>
  <rect x="9" y="12" width="1" height="3" fill="#00b8d4"/>
  <rect x="10" y="12" width="2" height="3" fill="#00e5ff"/>
  <rect x="11" y="13" width="1" height="1" fill="#00b8d4"/>

  <!-- Mantle shading (right edge) -->
  <rect x="9" y="1" width="1" height="1" fill="#00b8d4"/>
  <rect x="9" y="2" width="1" height="1" fill="#00b8d4"/>
  <rect x="10" y="3" width="1" height="1" fill="#00b8d4"/>
  <rect x="10" y="4" width="1" height="1" fill="#00b8d4"/>
  <rect x="11" y="5" width="1" height="1" fill="#00b8d4"/>
  <rect x="12" y="6" width="1" height="1" fill="#00b8d4"/>
  <!-- Mantle highlight (rounded top) -->
  <rect x="6" y="0" width="2" height="1" fill="#7df9ff"/>
  <!-- Smile (small and gentle, not manic) -->
  <rect x="7" y="11" width="2" height="1" fill="#00838f"/>
</svg>
